<svg width="183" height="12" viewBox="0 0 183 12" fill="none" xmlns="http://www.w3.org/2000/svg">
<path d="M0.572754 0.119467H4.27224C5.81874 0.119467 7.03168 0.499799 7.94139 1.28972C8.8511 2.07963 9.27563 3.07435 9.27563 4.27385C9.27563 5.50261 8.82078 6.49732 7.94139 7.28724C7.03168 8.07716 5.81874 8.45749 4.27224 8.45749H2.78638V10.9443H0.572754V0.119467ZM2.78638 6.43881H4.42385C5.21227 6.43881 5.84907 6.26327 6.36457 5.88294C6.88007 5.53187 7.15298 4.976 7.15298 4.27385C7.15298 3.5717 6.88007 3.04509 6.36457 2.69401C5.84907 2.34294 5.18194 2.13815 4.42385 2.13815H2.78638V6.43881Z" fill="#191531"/>
<path d="M13.3997 0.119467H17.2204C18.7366 0.119467 19.9496 0.499799 20.7986 1.26046C21.6477 2.02112 22.1025 3.01583 22.1025 4.18608C22.1025 4.976 21.8903 5.67815 21.4657 6.26327C21.0412 6.8484 20.4347 7.28724 19.6767 7.5798C20.1315 7.87236 20.7077 8.516 21.3445 9.48146L22.3148 10.915H19.8283L19.1005 9.83253C18.6456 9.15964 18.3121 8.75005 18.0392 8.57451C17.7966 8.39898 17.4024 8.28195 16.8566 8.28195H15.6133V10.915H13.3997V0.119467ZM15.6133 2.10889V6.26327H17.4327C18.1908 6.26327 18.8276 6.08774 19.2824 5.73666C19.7373 5.38559 19.9799 4.85897 19.9799 4.18608C19.9799 3.51319 19.7373 3.01583 19.2521 2.66476C18.7669 2.31368 18.1605 2.10889 17.4024 2.10889H15.6133Z" fill="#191531"/>
<path d="M27.1666 1.61153C28.2885 0.529054 29.6228 0.00244141 31.1996 0.00244141C32.7765 0.00244141 34.141 0.529054 35.2327 1.61153C36.3546 2.69401 36.9005 3.98129 36.9005 5.50261C36.9005 7.02393 36.3546 8.34046 35.2327 9.39369C34.1107 10.4762 32.7765 11.0028 31.1996 11.0028C29.6228 11.0028 28.2582 10.4762 27.1666 9.39369C26.0446 8.31121 25.4988 7.02393 25.4988 5.50261C25.4988 3.98129 26.0749 2.69401 27.1666 1.61153ZM33.7165 2.98658C33.0494 2.31368 32.2003 1.99186 31.2299 1.99186C30.2293 1.99186 29.4105 2.31368 28.7434 2.98658C28.0763 3.65947 27.7427 4.47864 27.7427 5.50261C27.7427 6.52658 28.0763 7.37501 28.7434 8.01865C29.4105 8.66228 30.2293 9.01336 31.2299 9.01336C32.2306 9.01336 33.0797 8.69154 33.7468 8.01865C34.4139 7.37501 34.7475 6.52658 34.7475 5.50261C34.7172 4.5079 34.3836 3.65947 33.7165 2.98658Z" fill="#191531"/>
<path d="M45.3911 10.915H44.0872L39.4477 0.0902114H41.9039L44.6937 6.99468L47.4834 0.0902114H49.9396L45.3911 10.915Z" fill="#191531"/>
<path d="M56.1256 4.47864H60.9774V6.49732H56.1256V8.92559H61.3716V10.9443H53.912V0.119467H61.3716V2.13815H56.1256V4.47864Z" fill="#191531"/>
<path d="M74.1985 10.915H72.8946L67.588 4.09831V10.915H65.3744V0.0902114H66.6783L71.9849 6.90691V0.0902114H74.1985V10.915Z" fill="#191531"/>
<path d="M86.1157 0.119467H89.7243C91.1798 0.119467 92.3321 0.470542 93.2115 1.17269C94.0909 1.87484 94.5457 2.81104 94.5457 4.01054C94.5457 4.88823 94.3031 5.61964 93.7876 6.23402C93.2721 6.81914 92.5747 7.25799 91.6953 7.49203C92.3018 7.72608 92.9385 8.34046 93.545 9.27666L94.667 10.9443H93.2418L92.3321 9.56923C91.8772 8.89633 91.4527 8.45749 91.1191 8.2527C90.7552 8.0479 90.2701 7.93088 89.6636 7.93088H87.359V10.9735H86.1157V0.119467ZM87.3893 6.76063H89.8456C90.8766 6.76063 91.7256 6.52658 92.3927 6.05848C93.0599 5.59038 93.3934 4.91749 93.3934 3.98129C93.3934 3.07435 93.0599 2.3722 92.3927 1.9041C91.7256 1.436 90.8766 1.20195 89.8456 1.20195H87.3893V6.76063Z" fill="#191531"/>
<path d="M99.7917 1.61153C100.914 0.529054 102.248 0.00244141 103.825 0.00244141C105.402 0.00244141 106.766 0.529054 107.858 1.61153C108.98 2.69401 109.526 3.98129 109.526 5.50261C109.526 7.02393 108.98 8.34046 107.858 9.39369C106.736 10.4762 105.402 11.0028 103.825 11.0028C102.248 11.0028 100.883 10.4762 99.7917 9.39369C98.6697 8.31121 98.1239 7.02393 98.1239 5.50261C98.1239 3.98129 98.7001 2.69401 99.7917 1.61153ZM107.009 2.3722C106.129 1.52376 105.098 1.11418 103.825 1.11418C102.581 1.11418 101.52 1.52376 100.671 2.3722C99.822 3.22063 99.3672 4.24459 99.3672 5.50261C99.3672 6.76063 99.7917 7.7846 100.671 8.63303C101.52 9.48146 102.581 9.89104 103.825 9.89104C105.068 9.89104 106.129 9.48146 107.009 8.63303C107.888 7.7846 108.313 6.76063 108.313 5.50261C108.313 4.27385 107.888 3.22063 107.009 2.3722Z" fill="#191531"/>
<path d="M114.074 0.119467H118.137C120.624 0.119467 121.867 1.05567 121.867 2.89881C121.867 4.12757 121.291 4.91749 120.169 5.26856C120.897 5.41484 121.473 5.70741 121.867 6.17551C122.261 6.6436 122.474 7.22873 122.474 7.93088C122.474 9.9203 121.17 10.9443 118.562 10.9443H114.104V0.119467H114.074ZM115.317 4.80046H118.259C119.866 4.80046 120.685 4.21534 120.685 3.01583C120.685 2.45997 120.503 2.02112 120.169 1.6993C119.836 1.37749 119.199 1.20195 118.259 1.20195H115.317V4.80046ZM115.317 5.85369V9.80328H118.774C120.442 9.80328 121.261 9.13038 121.261 7.81385C121.261 7.19947 121.049 6.73137 120.624 6.3803C120.2 6.02922 119.593 5.85369 118.744 5.85369H115.317Z" fill="#191531"/>
<path d="M127.72 1.61153C128.842 0.529054 130.176 0.00244141 131.753 0.00244141C133.33 0.00244141 134.694 0.529054 135.786 1.61153C136.908 2.69401 137.454 3.98129 137.454 5.50261C137.454 7.02393 136.908 8.34046 135.786 9.39369C134.664 10.4762 133.33 11.0028 131.753 11.0028C130.176 11.0028 128.811 10.4762 127.72 9.39369C126.598 8.31121 126.052 7.02393 126.052 5.50261C126.052 3.98129 126.628 2.69401 127.72 1.61153ZM134.937 2.3722C134.057 1.52376 133.026 1.11418 131.753 1.11418C130.51 1.11418 129.448 1.52376 128.599 2.3722C127.75 3.22063 127.295 4.24459 127.295 5.50261C127.295 6.76063 127.72 7.7846 128.599 8.63303C129.448 9.48146 130.51 9.89104 131.753 9.89104C132.996 9.89104 134.057 9.48146 134.937 8.63303C135.816 7.7846 136.241 6.76063 136.241 5.50261C136.241 4.27385 135.816 3.22063 134.937 2.3722Z" fill="#191531"/>
<path d="M145.368 1.2312V10.915H144.125V1.2312H140.638V0.0902114H148.825V1.2312H145.368Z" fill="#191531"/>
<path d="M155.557 9.80327H156.861V10.9443H152.979V9.80327H154.283V1.2312H152.979V0.0902114H156.861V1.2312H155.557V9.80327Z" fill="#191531"/>
<path d="M166.625 0.00244141C168.323 0.00244141 169.718 0.616822 170.87 1.81633L170.052 2.51848C169.112 1.58228 167.99 1.11418 166.625 1.11418C165.382 1.11418 164.32 1.52376 163.471 2.3722C162.622 3.22063 162.167 4.24459 162.167 5.50261C162.167 6.76063 162.592 7.7846 163.471 8.63303C164.32 9.48146 165.382 9.89104 166.625 9.89104C167.99 9.89104 169.142 9.42294 170.052 8.48674L170.87 9.21815C169.748 10.4177 168.323 11.0028 166.625 11.0028C165.048 11.0028 163.684 10.4762 162.592 9.39369C161.47 8.31121 160.924 7.02393 160.924 5.50261C160.924 3.98129 161.47 2.66476 162.592 1.61153C163.684 0.529054 165.018 0.00244141 166.625 0.00244141Z" fill="#191531"/>
<path d="M178.391 0.00244141H178.573C179.361 0.00244141 180.119 0.148723 180.847 0.470541C181.575 0.792359 182.151 1.2312 182.636 1.78707L181.817 2.48922C181.423 2.05038 180.938 1.72856 180.362 1.46525C179.785 1.2312 179.179 1.08492 178.573 1.08492H178.391C177.723 1.08492 177.117 1.26046 176.602 1.58228C176.056 1.9041 175.783 2.3722 175.783 2.98658C175.783 3.45468 175.965 3.80575 176.359 4.06906C176.753 4.33236 177.36 4.5079 178.178 4.59567L179.391 4.74195C180.574 4.88823 181.484 5.21005 182.09 5.67815C182.697 6.14625 183 6.87765 183 7.81385C183 8.75005 182.606 9.53997 181.817 10.0958C181.029 10.681 180.028 10.9735 178.876 10.9735H178.785C177.693 10.9735 176.783 10.7687 175.995 10.3299C175.207 9.89104 174.63 9.33517 174.267 8.63303L175.085 7.90162C175.358 8.48675 175.813 8.95484 176.45 9.30592C177.087 9.65699 177.875 9.83253 178.785 9.83253H178.876C179.695 9.83253 180.392 9.65699 180.938 9.27666C181.484 8.89633 181.757 8.39898 181.757 7.7846C181.757 7.19947 181.544 6.76063 181.12 6.43881C180.695 6.14625 180.089 5.9122 179.24 5.82443L178.027 5.67815C176.874 5.53187 175.995 5.23931 175.389 4.80046C174.812 4.36162 174.509 3.74724 174.509 2.95732C174.509 2.05038 174.873 1.31897 175.631 0.763103C176.42 0.295004 177.329 0.00244141 178.391 0.00244141Z" fill="#191531"/>
</svg>
