<svg width="85" height="85" viewBox="0 0 85 85" fill="none" xmlns="http://www.w3.org/2000/svg">
<g opacity="0.1">
<path d="M28.6915 7.72046L27.2029 2.32216C26.7298 0.644132 24.9666 -0.369142 23.2876 0.125845C22.4315 0.356663 21.7496 0.930186 21.3729 1.64042C20.9711 2.32565 20.824 3.20652 21.0458 4.06028L22.0452 7.65492C20.7616 7.88799 19.5316 8.26751 18.347 8.79342C16.2047 9.74345 14.3539 11.0356 12.778 12.6616C11.7497 13.7482 10.834 14.9474 10.0853 16.2631C9.71304 16.9188 9.36999 17.6037 9.07722 18.2883C8.54266 19.5233 8.19224 20.8075 7.97571 22.133L4.05463 21.0431C3.23036 20.7918 2.34949 20.9389 1.63478 21.3702C0.92871 21.7511 0.355187 22.433 0.124369 23.2891C-0.366448 24.9722 0.642657 26.7312 2.32069 27.2043L8.04125 28.7793C8.26581 29.9054 8.57844 31.0102 9.00874 32.064C9.31511 32.7749 9.65491 33.5106 10.0203 34.1625C10.751 35.4662 11.6583 36.6599 12.6752 37.7358C14.2299 39.3495 16.0755 40.6222 18.1451 41.5458C20.248 42.5028 22.5171 42.9435 24.9101 42.9351C27.4708 42.9257 29.837 42.4271 31.9752 41.4729C34.1428 40.4976 35.9978 39.2012 37.5443 37.6048C38.5725 36.5181 39.463 35.3442 40.1825 34.0077C40.5548 33.3519 40.8978 32.6671 41.1614 31.9532C41.7094 30.5548 42.1151 29.1319 42.3242 27.6221C42.4457 26.8252 42.5002 26.0286 42.5044 25.2324C42.5092 24.3187 42.4553 23.4138 42.3217 22.5302C42.1282 21.0812 41.7417 19.6584 41.2334 18.2991C40.9231 17.5338 40.5872 16.8525 40.2222 16.142C39.4915 14.8383 38.6134 13.6736 37.6257 12.6269C36.071 11.0132 34.2548 9.71114 32.1265 8.7878C31.0227 8.30749 29.8805 7.94887 28.6915 7.72046ZM35.7013 20.7129C35.9246 21.2816 36.1227 21.8756 36.287 22.5034C36.4797 23.328 36.588 24.2368 36.5579 25.1757C36.5534 26.0307 36.436 26.8234 36.26 27.6248C36.1144 28.2206 35.9142 28.821 35.6849 29.3922C35.1077 30.7614 34.3346 31.9347 33.2771 32.9922C32.9064 33.363 32.477 33.734 32.0478 34.0548C31.3072 34.6286 30.5086 35.0854 29.6223 35.4631C28.2236 36.0698 26.6587 36.3923 25.0075 36.401C23.4149 36.4094 21.9078 36.1072 20.5446 35.5444C19.6664 35.1803 18.8391 34.6985 18.1045 34.1324C17.7079 33.8537 17.3116 33.508 16.9447 33.1411C15.9275 32.1239 15.1081 30.959 14.5453 29.5958C14.2928 28.9978 14.0948 28.4037 13.9558 27.7507C13.7632 26.9261 13.6795 26.1009 13.7135 25.2165C13.7183 24.3029 13.8064 23.481 14.0078 22.6544C14.1829 22.029 14.3538 21.3995 14.6168 20.803C15.1939 19.4338 16.0215 18.2643 17.0537 17.2321C17.4245 16.8614 17.7991 16.5451 18.2241 16.2285C18.9647 15.6547 19.7926 15.227 20.7083 14.8199C22.1071 14.2132 23.6129 13.9497 25.2641 13.941C26.798 13.9329 28.3388 14.2097 29.7271 14.7975C30.6052 15.1617 31.4325 15.6435 32.1674 16.1509C32.5932 16.4588 32.9603 16.7753 33.3272 17.1422C34.3486 18.1636 35.1385 19.3496 35.7013 20.7129Z" fill="white"/>
<path d="M71.6106 0H63.0757C64.421 0.343949 65.8211 0.508587 67.2666 0.508781H67.2717C67.2933 0.508779 67.3148 0.508739 67.3364 0.508663C68.8295 0.503237 70.2564 0.331453 71.6106 0Z" fill="white"/>
<path fill-rule="evenodd" clip-rule="evenodd" d="M69.6291 44.7486L71.1178 50.1468C72.3068 50.3753 73.449 50.7339 74.5528 51.2142C76.6811 52.1375 78.4973 53.4396 80.052 55.0533C81.0397 56.1 81.9177 57.2647 82.6484 58.5684C83.0135 59.2789 83.3494 59.9602 83.6596 60.7255C84.1679 62.0848 84.5545 63.5076 84.748 64.9566C84.8816 65.8402 84.9355 66.7451 84.9307 67.6588C84.9265 68.455 84.872 69.2516 84.7504 70.0485C84.5413 71.5583 84.1357 72.9812 83.5877 74.3796C83.3241 75.0934 82.981 75.7783 82.6088 76.4341C81.8893 77.7705 80.9988 78.9445 79.9705 80.0312C78.4241 81.6276 76.5691 82.924 74.4015 83.8993C73.51 84.2971 72.5789 84.6158 71.6106 84.8528H63.0757C62.2178 84.6335 61.3822 84.3412 60.5713 83.9722C58.5018 83.0486 56.6561 81.7759 55.1015 80.1622C54.0846 79.0863 53.1773 77.8925 52.4465 76.5889C52.0812 75.937 51.7414 75.2012 51.435 74.4904C51.0047 73.4366 50.6921 72.3318 50.4675 71.2057L44.747 69.6307C43.0689 69.1576 42.0598 67.3986 42.5506 65.7155C42.7815 64.8594 43.355 64.1775 44.061 63.7966C44.7758 63.3653 45.6566 63.2182 46.4809 63.4695L50.402 64.5594C50.6185 63.2339 50.9689 61.9497 51.5035 60.7147C51.7963 60.0301 52.1393 59.3452 52.5116 58.6895C53.2603 57.3738 54.176 56.1746 55.2043 55.088C56.7802 53.462 58.631 52.1698 60.7733 51.2198C61.9579 50.6939 63.1879 50.3144 64.4715 50.0813L63.472 46.4867C63.2502 45.6329 63.3974 44.752 63.7991 44.0668C64.1758 43.3566 64.8578 42.7831 65.7139 42.5522C67.3929 42.0572 69.156 43.0705 69.6291 44.7486ZM78.7133 64.9298C78.549 64.302 78.3509 63.708 78.1276 63.1392C77.5648 61.776 76.7748 60.59 75.7534 59.5686C75.3866 59.2017 75.0195 58.8851 74.5936 58.5773C73.8587 58.0699 73.0315 57.5881 72.1534 57.2239C70.7651 56.6361 69.2243 56.3593 67.6904 56.3674C66.0392 56.3761 64.5333 56.6396 63.1346 57.2463C62.2188 57.6534 61.391 58.0811 60.6504 58.6549C60.2254 58.9715 59.8507 59.2878 59.48 59.6585C58.4478 60.6907 57.6202 61.8602 57.043 63.2294C56.7933 63.796 56.6265 64.3923 56.4604 64.9866C56.4516 65.018 56.4428 65.0494 56.434 65.0808C56.2327 65.9074 56.1446 66.7293 56.1398 67.6429C56.1058 68.5273 56.1894 69.3525 56.382 70.1771C56.5211 70.8301 56.7191 71.4242 56.9716 72.0221C57.5343 73.3854 58.3538 74.5503 59.371 75.5675C59.7379 75.9344 60.1341 76.2801 60.5308 76.5588C61.2654 77.1249 62.0927 77.6067 62.9708 77.9708C64.3341 78.5336 65.8412 78.8358 67.4337 78.8274C69.085 78.8187 70.6498 78.4962 72.0486 77.8895C72.9348 77.5118 73.7335 77.055 74.4741 76.4812C74.9032 76.1604 75.3327 75.7894 75.7034 75.4186C76.7609 74.3611 77.534 73.1878 78.1112 71.8186C78.3405 71.2474 78.5406 70.647 78.6863 70.0512C78.8623 69.2498 78.9797 68.4571 78.9842 67.6021C79.0143 66.6632 78.9059 65.7544 78.7133 64.9298Z" fill="white"/>
</g>
</svg>
