<svg width="30" height="31" viewBox="0 0 30 31" fill="none" xmlns="http://www.w3.org/2000/svg">
<path d="M27.125 8.04877L29.4092 3.96866C30.1131 2.69424 29.675 1.04935 28.4049 0.34793C27.7699 -0.0225405 27.0364 -0.0867554 26.4013 0.110829C25.7663 0.278775 25.1657 0.713461 24.7965 1.35067L23.2803 4.07239C22.3942 3.45 21.4539 2.94616 20.4546 2.55593C18.6479 1.84957 16.8117 1.51862 14.9411 1.54825C13.7055 1.58283 12.4698 1.75078 11.2637 2.08667C10.6632 2.25462 10.0626 2.45714 9.49154 2.6893C8.45775 3.10423 7.50273 3.65746 6.60185 4.31443L4.94779 1.34573C4.61304 0.708521 4.01246 0.273836 3.34296 0.105889C2.70792 -0.0867554 1.97442 -0.0225405 1.33938 0.34793C0.0692998 1.05429 -0.368829 2.69424 0.335131 3.96866L2.75715 8.29081C2.23041 9.09103 1.76767 9.93076 1.40338 10.81C1.16708 11.4126 0.935712 12.0499 0.768337 12.6525C0.433587 13.8577 0.266212 15.1025 0.231752 16.3424C0.197293 18.2194 0.532043 20.0668 1.20154 21.8402C1.87104 23.653 2.93929 25.2584 4.34229 26.6711C5.84374 28.1826 7.51749 29.2891 9.32416 29.9905C11.1604 30.6969 13.0015 31.0278 14.8377 30.9982C16.0733 30.9636 17.2794 30.7957 18.4806 30.4301C19.0811 30.2622 19.6817 30.0597 20.2528 29.7929C21.3899 29.2891 22.4582 28.6864 23.4624 27.9159C23.999 27.5158 24.4962 27.0761 24.9639 26.6069C25.5005 26.0685 25.9977 25.5004 26.4358 24.8978C27.1693 23.9247 27.7748 22.8528 28.272 21.7463C28.5378 21.1091 28.7397 20.5065 28.9415 19.8692C29.2763 18.664 29.4436 17.4538 29.4781 16.2485C29.5126 14.3715 29.2123 12.5241 28.5083 10.7162C28.144 9.77763 27.6862 8.88851 27.125 8.04877ZM23.6298 19.8989C23.428 20.3681 23.1966 20.8374 22.9259 21.3067C22.5566 21.9093 22.089 22.5119 21.5229 23.0504C21.0207 23.5542 20.4891 23.9543 19.918 24.3248C19.4848 24.5915 19.0172 24.8286 18.5495 25.0311C17.4123 25.5004 16.2752 25.7375 15.0395 25.7375C14.6063 25.7375 14.1387 25.7029 13.7005 25.6387C12.9326 25.5399 12.1991 25.3374 11.4607 25.0361C10.289 24.5668 9.18632 23.8308 8.21653 22.8577C7.2812 21.9192 6.57724 20.8473 6.10957 19.7062C5.80928 18.9702 5.60745 18.1947 5.50899 17.4241C5.44007 17.024 5.41054 16.5844 5.41054 16.1497C5.41054 14.9445 5.61237 13.7688 6.08004 12.6278C6.28187 12.1239 6.51324 11.6547 6.81353 11.1854C7.18274 10.5828 7.61595 10.0444 8.15253 9.54053C8.68912 9.00212 9.22078 8.56743 9.82136 8.19696C10.289 7.93022 10.7567 7.65855 11.2588 7.46096C12.396 6.9917 13.5627 6.78917 14.7688 6.78917C15.202 6.78917 15.6057 6.82375 16.0389 6.88797C16.8068 6.98676 17.5403 7.22386 18.3132 7.52518C19.4848 7.99444 20.5186 8.73044 21.4884 9.70354C22.3893 10.6075 23.1277 11.6843 23.5954 12.855C23.8956 13.591 24.0975 14.3665 24.2304 15.1025C24.2993 15.5372 24.3288 15.9423 24.3288 16.3769C24.3288 17.5872 24.0975 18.7578 23.6298 19.8989Z" fill="url(#paint0_linear)"/>
<defs>
<linearGradient id="paint0_linear" x1="-44.2775" y1="76.7776" x2="62.7569" y2="-40.5597" gradientUnits="userSpaceOnUse">
<stop stop-color="#9163F5"/>
<stop offset="1" stop-color="#6F73EE"/>
</linearGradient>
</defs>
</svg>
